<?xml version="1.0" standalone="no"?>
<!DOCTYPE svg PUBLIC "-//W3C//DTD SVG 20010904//EN"
 "http://www.w3.org/TR/2001/REC-SVG-20010904/DTD/svg10.dtd">
<svg version="1.0" xmlns="http://www.w3.org/2000/svg"
 width="500.000000pt" height="500.000000pt" viewBox="0 0 500.000000 500.000000"
 preserveAspectRatio="xMidYMid meet">
<metadata>
Created by potrace 1.14, written by Peter Selinger 2001-2017
</metadata>
<g transform="translate(0.000000,500.000000) scale(0.100000,-0.100000)"
fill="#000000" stroke="none">
<path d="M2477 4165 c-1 -1 -45 -5 -97 -8 -52 -4 -104 -8 -115 -11 -11 -2 -40
-7 -65 -10 -62 -10 -211 -52 -293 -83 -255 -95 -509 -277 -685 -488 -158 -190
-308 -498 -347 -710 -34 -192 -45 -374 -30 -500 3 -22 7 -60 10 -85 26 -207
111 -440 236 -649 59 -98 232 -302 304 -359 22 -17 49 -39 60 -49 175 -158
494 -302 780 -350 125 -21 400 -21 530 1 106 18 304 71 320 87 5 5 16 9 25 9
39 0 310 153 402 228 64 52 166 143 188 168 176 201 275 361 354 570 15 39 28
79 31 90 2 10 9 35 15 54 17 55 39 168 48 249 13 109 6 342 -12 446 -9 50 -18
104 -21 120 -11 59 -88 271 -127 350 -149 295 -372 535 -653 700 -170 100
-359 170 -544 201 -18 3 -43 8 -55 10 -11 2 -59 7 -106 10 -47 3 -100 6 -118
8 -18 1 -33 2 -35 1z"/>
</g>
</svg>
